<?xml version="1.0" encoding="UTF-8"?>
<svg xmlns="http://www.w3.org/2000/svg" xmlns:xlink="http://www.w3.org/1999/xlink" width="800px" height="574px" viewBox="0 0 800 574" version="1.1">
<g id="surface1">
<path style="fill:none;stroke-width:4;stroke-linecap:butt;stroke-linejoin:miter;stroke:rgb(25.098041%,25.098041%,25.098041%);stroke-opacity:1;stroke-miterlimit:10;" d="M 424.398438 459.898438 C 424.398438 442.898438 438.199219 429.101562 455.199219 429.101562 "/>
<path style="fill:none;stroke-width:4;stroke-linecap:butt;stroke-linejoin:miter;stroke:rgb(25.098041%,25.098041%,25.098041%);stroke-opacity:1;stroke-miterlimit:10;" d="M 254.101562 459.898438 C 254.101562 442.898438 240.300781 429.101562 223.300781 429.101562 M 164.5 552.101562 L 378.398438 552.101562 "/>
<path style="fill-rule:nonzero;fill:rgb(30.588236%,81.960785%,63.137257%);fill-opacity:1;stroke-width:4;stroke-linecap:butt;stroke-linejoin:miter;stroke:rgb(25.098041%,25.098041%,25.098041%);stroke-opacity:1;stroke-miterlimit:10;" d="M 331.601562 552.101562 C 331.601562 560.824219 324.527344 567.898438 315.800781 567.898438 C 307.074219 567.898438 300 560.824219 300 552.101562 C 300 543.375 307.074219 536.300781 315.800781 536.300781 C 324.527344 536.300781 331.601562 543.375 331.601562 552.101562 Z M 331.601562 552.101562 "/>
<path style="fill-rule:nonzero;fill:rgb(30.588236%,81.960785%,63.137257%);fill-opacity:1;stroke-width:4;stroke-linecap:butt;stroke-linejoin:miter;stroke:rgb(25.098041%,25.098041%,25.098041%);stroke-opacity:1;stroke-miterlimit:10;" d="M 378.5 552.101562 C 378.5 560.824219 371.425781 567.898438 362.699219 567.898438 C 353.972656 567.898438 346.898438 560.824219 346.898438 552.101562 C 346.898438 543.375 353.972656 536.300781 362.699219 536.300781 C 371.425781 536.300781 378.5 543.375 378.5 552.101562 Z M 378.5 552.101562 "/>
<path style="fill-rule:nonzero;fill:rgb(30.588236%,81.960785%,63.137257%);fill-opacity:1;stroke-width:4;stroke-linecap:butt;stroke-linejoin:miter;stroke:rgb(25.098041%,25.098041%,25.098041%);stroke-opacity:1;stroke-miterlimit:10;" d="M 258.300781 552.101562 C 258.300781 560.824219 251.226562 567.898438 242.5 567.898438 C 233.773438 567.898438 226.699219 560.824219 226.699219 552.101562 C 226.699219 543.375 233.773438 536.300781 242.5 536.300781 C 251.226562 536.300781 258.300781 543.375 258.300781 552.101562 Z M 258.300781 552.101562 "/>
<path style="fill:none;stroke-width:4;stroke-linecap:butt;stroke-linejoin:miter;stroke:rgb(25.098041%,25.098041%,25.098041%);stroke-opacity:1;stroke-miterlimit:10;" d="M 776.199219 429.101562 L 179.898438 429.101562 "/>
<path style="fill-rule:nonzero;fill:rgb(69.411767%,54.509807%,90.980393%);fill-opacity:1;stroke-width:4;stroke-linecap:butt;stroke-linejoin:miter;stroke:rgb(25.098041%,25.098041%,25.098041%);stroke-opacity:1;stroke-miterlimit:10;" d="M 501 429.101562 C 501 437.824219 493.925781 444.898438 485.199219 444.898438 C 476.472656 444.898438 469.398438 437.824219 469.398438 429.101562 C 469.398438 420.375 476.472656 413.300781 485.199219 413.300781 C 493.925781 413.300781 501 420.375 501 429.101562 Z M 501 429.101562 "/>
<path style="fill-rule:nonzero;fill:rgb(69.411767%,54.509807%,90.980393%);fill-opacity:1;stroke-width:4;stroke-linecap:butt;stroke-linejoin:miter;stroke:rgb(25.098041%,25.098041%,25.098041%);stroke-opacity:1;stroke-miterlimit:10;" d="M 331.601562 429.101562 C 331.601562 437.824219 324.527344 444.898438 315.800781 444.898438 C 307.074219 444.898438 300 437.824219 300 429.101562 C 300 420.375 307.074219 413.300781 315.800781 413.300781 C 324.527344 413.300781 331.601562 420.375 331.601562 429.101562 Z M 331.601562 429.101562 "/>
<path style="fill-rule:nonzero;fill:rgb(69.411767%,54.509807%,90.980393%);fill-opacity:1;stroke-width:4;stroke-linecap:butt;stroke-linejoin:miter;stroke:rgb(25.098041%,25.098041%,25.098041%);stroke-opacity:1;stroke-miterlimit:10;" d="M 792 429.101562 C 792 437.824219 784.925781 444.898438 776.199219 444.898438 C 767.472656 444.898438 760.398438 437.824219 760.398438 429.101562 C 760.398438 420.375 767.472656 413.300781 776.199219 413.300781 C 784.925781 413.300781 792 420.375 792 429.101562 Z M 792 429.101562 "/>
<path style="fill:none;stroke-width:4;stroke-linecap:butt;stroke-linejoin:miter;stroke:rgb(25.098041%,25.098041%,25.098041%);stroke-opacity:1;stroke-miterlimit:10;" d="M 254.101562 459.898438 C 254.101562 476.898438 267.898438 490.699219 284.898438 490.699219 L 392.800781 490.699219 M 84.898438 275 C 84.898438 292 98.699219 305.800781 115.699219 305.800781 L 133 305.800781 "/>
<path style="fill-rule:nonzero;fill:rgb(30.588236%,81.960785%,63.137257%);fill-opacity:1;stroke-width:4;stroke-linecap:butt;stroke-linejoin:miter;stroke:rgb(25.098041%,25.098041%,25.098041%);stroke-opacity:1;stroke-miterlimit:10;" d="M 331.601562 490.601562 C 331.601562 499.324219 324.527344 506.398438 315.800781 506.398438 C 307.074219 506.398438 300 499.324219 300 490.601562 C 300 481.875 307.074219 474.800781 315.800781 474.800781 C 324.527344 474.800781 331.601562 481.875 331.601562 490.601562 Z M 331.601562 490.601562 "/>
<path style="fill-rule:nonzero;fill:rgb(30.588236%,81.960785%,63.137257%);fill-opacity:1;stroke-width:4;stroke-linecap:butt;stroke-linejoin:miter;stroke:rgb(25.098041%,25.098041%,25.098041%);stroke-opacity:1;stroke-miterlimit:10;" d="M 378.5 490.601562 C 378.5 499.324219 371.425781 506.398438 362.699219 506.398438 C 353.972656 506.398438 346.898438 499.324219 346.898438 490.601562 C 346.898438 481.875 353.972656 474.800781 362.699219 474.800781 C 371.425781 474.800781 378.5 481.875 378.5 490.601562 Z M 378.5 490.601562 "/>
<path style="fill:none;stroke-width:4;stroke-linecap:butt;stroke-linejoin:miter;stroke:rgb(25.098041%,25.098041%,25.098041%);stroke-opacity:1;stroke-miterlimit:10;" d="M 392.800781 490.601562 L 393.699219 490.601562 C 410.699219 490.601562 424.5 476.800781 424.5 459.800781 "/>
<path style="fill:none;stroke-width:4;stroke-linecap:round;stroke-linejoin:round;stroke:rgb(80.000001%,80.000001%,80.000001%);stroke-opacity:1;stroke-dasharray:0,14.3051;stroke-miterlimit:4;" d="M 57.199219 306.101562 L 21.5 306.101562 "/>
<path style="fill:none;stroke-width:4;stroke-linecap:round;stroke-linejoin:round;stroke:rgb(80.000001%,80.000001%,80.000001%);stroke-opacity:1;stroke-dasharray:0,14.1689;stroke-miterlimit:4;" d="M 762.101562 306.101562 L 244.898438 306.101562 "/>
<path style="fill:none;stroke-width:4;stroke-linecap:round;stroke-linejoin:round;stroke:rgb(80.000001%,80.000001%,80.000001%);stroke-opacity:1;stroke-dasharray:0,13.9788;stroke-miterlimit:4;" d="M 531.5 367.601562 L 21.300781 367.601562 "/>
<path style="fill:none;stroke-width:4;stroke-linecap:round;stroke-linejoin:round;stroke:rgb(80.000001%,80.000001%,80.000001%);stroke-opacity:1;stroke-dasharray:0,14.7877;stroke-miterlimit:4;" d="M 761.5 367.601562 L 709.699219 367.601562 "/>
<path style="fill:none;stroke-width:4;stroke-linecap:round;stroke-linejoin:round;stroke:rgb(80.000001%,80.000001%,80.000001%);stroke-opacity:1;stroke-dasharray:0,14.9632;stroke-miterlimit:4;" d="M 761.300781 244.601562 L 679 244.601562 "/>
<path style="fill:none;stroke-width:4;stroke-linecap:butt;stroke-linejoin:miter;stroke:rgb(25.098041%,25.098041%,25.098041%);stroke-opacity:1;stroke-miterlimit:10;" d="M 84.898438 275.398438 C 84.898438 258.398438 71.101562 244.601562 54.101562 244.601562 M 211.699219 275 C 211.699219 292 197.898438 305.800781 180.898438 305.800781 L 132.898438 305.800781 M 211.699219 275.398438 C 211.699219 258.398438 225.5 244.601562 242.5 244.601562 M 273.199219 429.101562 C 256.199219 429.101562 242.398438 415.300781 242.398438 398.300781 L 242.398438 336.5 M 242.398438 336.5 C 242.398438 319.5 228.601562 305.699219 211.601562 305.699219 "/>
<path style="fill-rule:nonzero;fill:rgb(30.588236%,81.960785%,63.137257%);fill-opacity:1;stroke-width:4;stroke-linecap:butt;stroke-linejoin:miter;stroke:rgb(25.098041%,25.098041%,25.098041%);stroke-opacity:1;stroke-miterlimit:10;" d="M 164.5 552.101562 C 164.5 560.824219 157.425781 567.898438 148.699219 567.898438 C 139.972656 567.898438 132.898438 560.824219 132.898438 552.101562 C 132.898438 543.375 139.972656 536.300781 148.699219 536.300781 C 157.425781 536.300781 164.5 543.375 164.5 552.101562 Z M 164.5 552.101562 "/>
<path style="fill:none;stroke-width:4;stroke-linecap:butt;stroke-linejoin:miter;stroke:rgb(25.098041%,25.098041%,25.098041%);stroke-opacity:1;stroke-miterlimit:10;" d="M 645 244.601562 L 39.199219 244.601562 "/>
<path style="fill-rule:nonzero;fill:rgb(70.19608%,89.019608%,100%);fill-opacity:1;stroke-width:4;stroke-linecap:butt;stroke-linejoin:miter;stroke:rgb(25.098041%,25.098041%,25.098041%);stroke-opacity:1;stroke-miterlimit:10;" d="M 39.298139 244.598966 C 39.298763 253.326411 32.226078 260.399681 23.498633 260.400305 C 14.775094 260.400989 7.701883 253.324398 7.7012 244.600859 C 7.700576 235.873414 14.773261 228.800144 23.500705 228.79952 C 32.224244 228.798836 39.301361 235.875486 39.298139 244.598966 Z M 39.298139 244.598966 " transform="matrix(0.9999,-0.0151463,0.0151463,0.9999,-3.7021,0.384)"/>
<path style="fill-rule:nonzero;fill:rgb(70.19608%,89.019608%,100%);fill-opacity:1;stroke-width:4;stroke-linecap:butt;stroke-linejoin:miter;stroke:rgb(25.098041%,25.098041%,25.098041%);stroke-opacity:1;stroke-miterlimit:10;" d="M 331.601562 244.601562 C 331.601562 253.324219 324.527344 260.398438 315.800781 260.398438 C 307.074219 260.398438 300 253.324219 300 244.601562 C 300 235.875 307.074219 228.800781 315.800781 228.800781 C 324.527344 228.800781 331.601562 235.875 331.601562 244.601562 Z M 331.601562 244.601562 "/>
<path style="fill-rule:nonzero;fill:rgb(70.19608%,89.019608%,100%);fill-opacity:1;stroke-width:4;stroke-linecap:butt;stroke-linejoin:miter;stroke:rgb(25.098041%,25.098041%,25.098041%);stroke-opacity:1;stroke-miterlimit:10;" d="M 660.800781 244.601562 C 660.800781 253.324219 653.726562 260.398438 645 260.398438 C 636.273438 260.398438 629.199219 253.324219 629.199219 244.601562 C 629.199219 235.875 636.273438 228.800781 645 228.800781 C 653.726562 228.800781 660.800781 235.875 660.800781 244.601562 Z M 660.800781 244.601562 "/>
<path style="fill-rule:nonzero;fill:rgb(70.19608%,89.019608%,100%);fill-opacity:1;stroke-width:4;stroke-linecap:round;stroke-linejoin:round;stroke:rgb(25.098041%,25.098041%,25.098041%);stroke-opacity:1;stroke-miterlimit:10;" d="M 49 139.101562 L 91.5 139.101562 L 91.5 176.601562 L 49 176.601562 Z M 49 139.101562 "/>
<path style=" stroke:none;fill-rule:nonzero;fill:rgb(25.098041%,25.098041%,25.098041%);fill-opacity:1;" d="M 62.601562 162.398438 L 61.398438 162.398438 L 58.898438 156.101562 L 60.300781 156.101562 L 62.101562 160.898438 L 63.898438 156.101562 L 65.199219 156.101562 Z M 67.300781 155.101562 C 67.800781 154.300781 68.699219 153.699219 69.898438 153.699219 C 71.101562 153.699219 71.898438 154.199219 72.5 155.101562 C 73.101562 155.898438 73.300781 157 73.300781 158.199219 C 73.300781 159.398438 73.101562 160.398438 72.5 161.300781 C 72 162.101562 71.101562 162.699219 69.898438 162.699219 C 68.699219 162.699219 67.898438 162.199219 67.300781 161.300781 C 66.699219 160.5 66.5 159.398438 66.5 158.199219 C 66.5 157 66.699219 155.898438 67.300781 155.101562 Z M 68.5 160.898438 C 68.800781 161.199219 69.199219 161.398438 69.800781 161.398438 C 70.398438 161.398438 70.800781 161.199219 71.101562 160.898438 C 71.601562 160.398438 71.800781 159.5 71.800781 158.199219 C 71.800781 156.898438 71.601562 156 71.101562 155.5 C 70.800781 155.199219 70.398438 155 69.800781 155 C 69.199219 155 68.800781 155.199219 68.5 155.5 C 68 156 67.800781 156.898438 67.800781 158.199219 C 67.800781 159.5 68 160.300781 68.5 160.898438 Z M 75.800781 160.601562 C 76.300781 160.601562 76.699219 161 76.699219 161.5 C 76.699219 162 76.300781 162.398438 75.800781 162.398438 C 75.300781 162.398438 74.898438 162 74.898438 161.5 C 74.898438 161 75.300781 160.601562 75.800781 160.601562 Z M 79.699219 162.398438 L 79.699219 156.5 L 77.699219 156.5 L 77.699219 155.601562 C 78.898438 155.601562 79.699219 154.898438 79.898438 154 L 81 154 L 81 162.398438 C 81 162.398438 79.699219 162.398438 79.699219 162.398438 Z M 79.699219 162.398438 "/>
<path style="fill:none;stroke-width:4;stroke-linecap:round;stroke-linejoin:round;stroke:rgb(25.098041%,25.098041%,25.098041%);stroke-opacity:1;stroke-miterlimit:10;" d="M 70.300781 210.699219 L 70.300781 193.101562 M 78.5 204.199219 L 70.300781 212.398438 L 62.199219 204.199219 "/>
<path style="fill-rule:nonzero;fill:rgb(70.19608%,89.019608%,100%);fill-opacity:1;stroke-width:4;stroke-linecap:round;stroke-linejoin:round;stroke:rgb(25.098041%,25.098041%,25.098041%);stroke-opacity:1;stroke-miterlimit:10;" d="M 294.601562 139.101562 L 337.101562 139.101562 L 337.101562 176.601562 L 294.601562 176.601562 Z M 294.601562 139.101562 "/>
<path style=" stroke:none;fill-rule:nonzero;fill:rgb(25.098041%,25.098041%,25.098041%);fill-opacity:1;" d="M 306.5 162.398438 L 305.300781 162.398438 L 302.800781 156.101562 L 304.199219 156.101562 L 306 160.898438 L 307.800781 156.101562 L 309.101562 156.101562 Z M 311.199219 155.101562 C 311.699219 154.300781 312.601562 153.699219 313.800781 153.699219 C 315 153.699219 315.800781 154.199219 316.398438 155.101562 C 317 155.898438 317.199219 157 317.199219 158.199219 C 317.199219 159.398438 317 160.398438 316.398438 161.300781 C 315.898438 162.101562 315 162.699219 313.800781 162.699219 C 312.601562 162.699219 311.800781 162.199219 311.199219 161.300781 C 310.601562 160.5 310.398438 159.398438 310.398438 158.199219 C 310.398438 157 310.601562 155.898438 311.199219 155.101562 Z M 312.398438 160.898438 C 312.699219 161.199219 313.101562 161.398438 313.699219 161.398438 C 314.300781 161.398438 314.699219 161.199219 315 160.898438 C 315.5 160.398438 315.699219 159.5 315.699219 158.199219 C 315.699219 156.898438 315.5 156 315 155.5 C 314.699219 155.199219 314.300781 155 313.699219 155 C 313.101562 155 312.699219 155.199219 312.398438 155.5 C 311.898438 156 311.699219 156.898438 311.699219 158.199219 C 311.699219 159.5 311.898438 160.300781 312.398438 160.898438 Z M 319.699219 160.601562 C 320.199219 160.601562 320.601562 161 320.601562 161.5 C 320.601562 162 320.199219 162.398438 319.699219 162.398438 C 319.199219 162.398438 318.800781 162 318.800781 161.5 C 318.800781 161 319.199219 160.601562 319.699219 160.601562 Z M 322.699219 156.800781 L 322.699219 156.5 C 322.699219 155.101562 323.800781 153.800781 325.601562 153.800781 C 327.398438 153.800781 328.398438 155 328.398438 156.398438 C 328.398438 157.5 327.800781 158.398438 326.800781 159 L 325.101562 160.101562 C 324.601562 160.398438 324.199219 160.800781 324.101562 161.300781 L 328.398438 161.300781 L 328.398438 162.5 L 322.5 162.5 C 322.5 161.101562 323.101562 160.101562 324.5 159.101562 L 325.898438 158.199219 C 326.699219 157.699219 327.101562 157.101562 327.101562 156.398438 C 327.101562 155.601562 326.601562 154.898438 325.5 154.898438 C 324.398438 154.898438 323.898438 155.699219 323.898438 156.601562 L 323.898438 157 Z M 322.699219 156.800781 "/>
<path style="fill:none;stroke-width:4;stroke-linecap:round;stroke-linejoin:round;stroke:rgb(25.098041%,25.098041%,25.098041%);stroke-opacity:1;stroke-miterlimit:10;" d="M 315.800781 210.699219 L 315.800781 193.101562 M 324 204.199219 L 315.800781 212.398438 L 307.699219 204.199219 "/>
<path style="fill-rule:nonzero;fill:rgb(70.19608%,89.019608%,100%);fill-opacity:1;stroke-width:4;stroke-linecap:round;stroke-linejoin:round;stroke:rgb(25.098041%,25.098041%,25.098041%);stroke-opacity:1;stroke-miterlimit:10;" d="M 623.800781 139.101562 L 666.300781 139.101562 L 666.300781 176.601562 L 623.800781 176.601562 Z M 623.800781 139.101562 "/>
<path style=" stroke:none;fill-rule:nonzero;fill:rgb(25.098041%,25.098041%,25.098041%);fill-opacity:1;" d="M 636.800781 162.398438 L 635.601562 162.398438 L 633.101562 156.101562 L 634.5 156.101562 L 636.300781 160.898438 L 638.101562 156.101562 L 639.398438 156.101562 Z M 642.398438 162.398438 L 642.398438 156.5 L 640.398438 156.5 L 640.398438 155.601562 C 641.601562 155.601562 642.398438 154.898438 642.601562 154 L 643.699219 154 L 643.699219 162.398438 Z M 647 160.601562 C 647.5 160.601562 647.898438 161 647.898438 161.5 C 647.898438 162 647.5 162.398438 647 162.398438 C 646.5 162.398438 646.101562 162 646.101562 161.5 C 646.101562 161 646.5 160.601562 647 160.601562 Z M 650.601562 155.101562 C 651.101562 154.300781 652 153.699219 653.199219 153.699219 C 654.398438 153.699219 655.199219 154.199219 655.800781 155.101562 C 656.398438 155.898438 656.601562 157 656.601562 158.199219 C 656.601562 159.398438 656.398438 160.398438 655.800781 161.300781 C 655.300781 162.101562 654.398438 162.699219 653.199219 162.699219 C 652 162.699219 651.199219 162.199219 650.601562 161.300781 C 650 160.5 649.800781 159.398438 649.800781 158.199219 C 649.800781 157 650.101562 155.898438 650.601562 155.101562 Z M 651.898438 160.898438 C 652.199219 161.199219 652.601562 161.398438 653.199219 161.398438 C 653.800781 161.398438 654.199219 161.199219 654.5 160.898438 C 655 160.398438 655.199219 159.5 655.199219 158.199219 C 655.199219 156.898438 655 156 654.5 155.5 C 654.199219 155.199219 653.800781 155 653.199219 155 C 652.601562 155 652.199219 155.199219 651.898438 155.5 C 651.398438 156 651.199219 156.898438 651.199219 158.199219 C 651.199219 159.5 651.398438 160.300781 651.898438 160.898438 Z M 651.898438 160.898438 "/>
<path style="fill:none;stroke-width:4;stroke-linecap:round;stroke-linejoin:round;stroke:rgb(25.098041%,25.098041%,25.098041%);stroke-opacity:1;stroke-miterlimit:10;" d="M 645 210.699219 L 645 193.101562 M 653.199219 204.199219 L 645 212.398438 L 636.898438 204.199219 "/>
<path style="fill:none;stroke-width:4;stroke-linecap:round;stroke-linejoin:round;stroke:rgb(80.000001%,80.000001%,80.000001%);stroke-opacity:1;stroke-dasharray:0,12.543;stroke-miterlimit:4;" d="M 64.5 429.101562 L 20.601562 429.101562 "/>
<path style="fill:none;stroke-width:4;stroke-linecap:round;stroke-linejoin:round;stroke:rgb(80.000001%,80.000001%,80.000001%);stroke-opacity:1;stroke-dasharray:0,13.6844;stroke-miterlimit:4;" d="M 246.898438 490.601562 L 21.199219 490.601562 "/>
<path style="fill:none;stroke-width:4;stroke-linecap:round;stroke-linejoin:round;stroke:rgb(80.000001%,80.000001%,80.000001%);stroke-opacity:1;stroke-dasharray:0,13.7717;stroke-miterlimit:4;" d="M 762.5 490.601562 L 425.101562 490.601562 "/>
<path style="fill:none;stroke-width:4;stroke-linecap:round;stroke-linejoin:round;stroke:rgb(80.000001%,80.000001%,80.000001%);stroke-opacity:1;stroke-dasharray:0,13.6492;stroke-miterlimit:4;" d="M 109.898438 552.101562 L 21.101562 552.101562 "/>
<path style="fill:none;stroke-width:4;stroke-linecap:round;stroke-linejoin:round;stroke:rgb(80.000001%,80.000001%,80.000001%);stroke-opacity:1;stroke-dasharray:0,13.907;stroke-miterlimit:4;" d="M 762.300781 552.101562 L 393.800781 552.101562 "/>
<path style="fill-rule:nonzero;fill:rgb(29.803923%,82.745099%,83.92157%);fill-opacity:1;stroke-width:4;stroke-linecap:round;stroke-linejoin:round;stroke:rgb(25.098041%,25.098041%,25.098041%);stroke-opacity:1;stroke-miterlimit:10;" d="M 283.5 5.199219 L 379.699219 5.199219 L 379.699219 55.199219 L 283.5 55.199219 Z M 283.5 5.199219 "/>
<path style=" stroke:none;fill-rule:nonzero;fill:rgb(25.098041%,25.098041%,25.098041%);fill-opacity:1;" d="M 308.800781 31.800781 L 307.199219 31.800781 L 307.199219 36.101562 L 305.699219 36.101562 L 305.699219 25.601562 L 309.699219 25.601562 C 311.699219 25.601562 313 27 313 28.800781 C 313 30.300781 312 31.5 310.398438 31.800781 L 312.898438 36.300781 L 311.199219 36.300781 Z M 309.5 30.5 C 310.699219 30.5 311.5 29.800781 311.5 28.699219 C 311.5 27.601562 310.699219 26.898438 309.5 26.898438 L 307.300781 26.898438 L 307.300781 30.5 C 307.300781 30.5 309.5 30.5 309.5 30.5 Z M 321.601562 34.101562 C 321.199219 35.398438 320 36.398438 318.398438 36.398438 C 316.5 36.398438 314.800781 35 314.800781 32.5 C 314.800781 30.199219 316.398438 28.699219 318.300781 28.699219 C 320.5 28.699219 321.800781 30.199219 321.800781 32.5 L 321.800781 33 L 316.398438 33 C 316.398438 34.300781 317.398438 35.199219 318.601562 35.199219 C 319.800781 35.199219 320.398438 34.601562 320.601562 33.699219 Z M 320.199219 31.800781 C 320.199219 30.800781 319.5 30 318.199219 30 C 317 30 316.300781 30.898438 316.199219 31.800781 Z M 324.199219 36.199219 L 324.199219 25.300781 L 325.601562 25.300781 L 325.601562 36.199219 Z M 335.101562 34.101562 C 334.699219 35.398438 333.5 36.398438 331.898438 36.398438 C 330 36.398438 328.300781 35 328.300781 32.5 C 328.300781 30.199219 329.898438 28.699219 331.800781 28.699219 C 334 28.699219 335.300781 30.199219 335.300781 32.5 L 335.300781 33 L 329.898438 33 C 329.898438 34.300781 330.898438 35.199219 332.101562 35.199219 C 333.300781 35.199219 333.898438 34.601562 334.101562 33.699219 Z M 333.699219 31.800781 C 333.699219 30.800781 333 30 331.699219 30 C 330.5 30 329.800781 30.898438 329.699219 31.800781 Z M 339.398438 32.101562 L 341.398438 31.800781 C 341.800781 31.699219 342 31.5 342 31.300781 C 342 30.601562 341.5 30 340.398438 30 C 339.398438 30 338.898438 30.601562 338.800781 31.5 L 337.398438 31.199219 C 337.601562 29.800781 338.800781 28.898438 340.398438 28.898438 C 342.601562 28.898438 343.398438 30.101562 343.398438 31.5 L 343.398438 35 C 343.398438 35.601562 343.5 36 343.5 36.199219 L 342 36.199219 C 342 36 341.898438 35.699219 341.898438 35.199219 C 341.601562 35.699219 340.898438 36.398438 339.601562 36.398438 C 338.101562 36.398438 337.199219 35.398438 337.199219 34.199219 C 337.199219 33 338.199219 32.199219 339.398438 32.101562 Z M 341.898438 33.101562 L 341.898438 32.800781 L 339.699219 33.101562 C 339.101562 33.199219 338.699219 33.5 338.699219 34.199219 C 338.699219 34.699219 339.199219 35.199219 339.898438 35.199219 C 341 35.199219 341.898438 34.699219 341.898438 33.101562 Z M 346.898438 33.898438 C 347 34.699219 347.601562 35.199219 348.601562 35.199219 C 349.398438 35.199219 349.800781 34.699219 349.800781 34.199219 C 349.800781 33.800781 349.5 33.398438 348.898438 33.300781 L 347.699219 33 C 346.601562 32.800781 345.898438 32 345.898438 31 C 345.898438 29.800781 347.101562 28.699219 348.5 28.699219 C 350.5 28.699219 351.101562 30 351.199219 30.601562 L 350 31.101562 C 349.898438 30.699219 349.601562 29.898438 348.5 29.898438 C 347.800781 29.898438 347.300781 30.398438 347.300781 30.898438 C 347.300781 31.300781 347.601562 31.699219 348.101562 31.800781 L 349.300781 32.101562 C 350.601562 32.398438 351.300781 33.199219 351.300781 34.199219 C 351.300781 35.199219 350.398438 36.398438 348.699219 36.398438 C 346.699219 36.398438 345.898438 35.101562 345.800781 34.300781 Z M 360 34.101562 C 359.601562 35.398438 358.398438 36.398438 356.800781 36.398438 C 354.898438 36.398438 353.199219 35 353.199219 32.5 C 353.199219 30.199219 354.800781 28.699219 356.699219 28.699219 C 358.898438 28.699219 360.199219 30.199219 360.199219 32.5 L 360.199219 33 L 354.800781 33 C 354.800781 34.300781 355.800781 35.199219 357 35.199219 C 358.199219 35.199219 358.800781 34.601562 359 33.699219 Z M 358.601562 31.800781 C 358.601562 30.800781 357.898438 30 356.601562 30 C 355.398438 30 354.699219 30.898438 354.601562 31.800781 Z M 358.601562 31.800781 "/>
<path style="fill-rule:nonzero;fill:rgb(69.411767%,54.509807%,90.980393%);fill-opacity:1;stroke-width:4;stroke-linecap:round;stroke-linejoin:round;stroke:rgb(25.098041%,25.098041%,25.098041%);stroke-opacity:1;stroke-miterlimit:10;" d="M 421.300781 5.199219 L 517.5 5.199219 L 517.5 55.199219 L 421.300781 55.199219 Z M 421.300781 5.199219 "/>
<path style=" stroke:none;fill-rule:nonzero;fill:rgb(25.098041%,25.098041%,25.098041%);fill-opacity:1;" d="M 441.699219 36.199219 L 441.699219 25.601562 L 445.398438 25.601562 C 448.101562 25.601562 450.5 27.398438 450.5 30.898438 C 450.5 34.398438 448.101562 36.199219 445.398438 36.199219 Z M 445.300781 34.898438 C 447.300781 34.898438 448.898438 33.601562 448.898438 30.898438 C 448.898438 28.199219 447.300781 26.898438 445.300781 26.898438 L 443.101562 26.898438 L 443.101562 34.898438 Z M 459.300781 34.101562 C 458.898438 35.398438 457.699219 36.398438 456.101562 36.398438 C 454.199219 36.398438 452.5 35 452.5 32.5 C 452.5 30.199219 454.101562 28.699219 455.898438 28.699219 C 458.101562 28.699219 459.398438 30.199219 459.398438 32.5 L 459.398438 33 L 454 33 C 454 34.300781 455 35.199219 456.199219 35.199219 C 457.398438 35.199219 458 34.601562 458.199219 33.699219 Z M 457.898438 31.800781 C 457.898438 30.800781 457.199219 30 455.898438 30 C 454.699219 30 454 30.898438 453.898438 31.800781 Z M 465.398438 36.199219 L 464 36.199219 L 461 29 L 462.601562 29 L 464.699219 34.601562 L 466.800781 29 L 468.300781 29 Z M 476.101562 34.101562 C 475.699219 35.398438 474.5 36.398438 472.898438 36.398438 C 471 36.398438 469.300781 35 469.300781 32.5 C 469.300781 30.199219 470.898438 28.699219 472.800781 28.699219 C 475 28.699219 476.300781 30.199219 476.300781 32.5 L 476.300781 33 L 470.898438 33 C 470.898438 34.300781 471.898438 35.199219 473.101562 35.199219 C 474.300781 35.199219 474.898438 34.601562 475.101562 33.699219 Z M 474.699219 31.800781 C 474.699219 30.800781 474 30 472.699219 30 C 471.5 30 470.800781 30.898438 470.699219 31.800781 Z M 478.699219 36.199219 L 478.699219 25.300781 L 480.101562 25.300781 L 480.101562 36.199219 Z M 490.101562 32.601562 C 490.101562 34.800781 488.601562 36.398438 486.398438 36.398438 C 484.199219 36.398438 482.699219 34.800781 482.699219 32.601562 C 482.699219 30.398438 484.199219 28.800781 486.398438 28.800781 C 488.5 28.699219 490.101562 30.398438 490.101562 32.601562 Z M 488.601562 32.601562 C 488.601562 30.898438 487.601562 30 486.398438 30 C 485.199219 30 484.199219 30.898438 484.199219 32.601562 C 484.199219 34.300781 485.199219 35.199219 486.398438 35.199219 C 487.601562 35.199219 488.601562 34.199219 488.601562 32.601562 Z M 492.601562 39 L 492.601562 29 L 494 29 L 494 30.101562 C 494.398438 29.398438 495.199219 28.800781 496.398438 28.800781 C 498.601562 28.800781 499.699219 30.5 499.699219 32.601562 C 499.699219 34.699219 498.5 36.398438 496.300781 36.398438 C 495.199219 36.398438 494.300781 35.898438 494 35.199219 L 494 39 Z M 496.101562 30.101562 C 494.800781 30.101562 494 31.199219 494 32.601562 C 494 34.101562 494.898438 35.199219 496.101562 35.199219 C 497.398438 35.199219 498.199219 34.101562 498.199219 32.601562 C 498.300781 31.101562 497.5 30.101562 496.101562 30.101562 Z M 496.101562 30.101562 "/>
<path style="fill-rule:nonzero;fill:rgb(98.823529%,51.372552%,38.82353%);fill-opacity:1;stroke-width:4;stroke-linecap:round;stroke-linejoin:round;stroke:rgb(25.098041%,25.098041%,25.098041%);stroke-opacity:1;stroke-miterlimit:10;" d="M 145.800781 5.199219 L 242 5.199219 L 242 55.199219 L 145.800781 55.199219 Z M 145.800781 5.199219 "/>
<path style=" stroke:none;fill-rule:nonzero;fill:rgb(25.098041%,25.098041%,25.098041%);fill-opacity:1;" d="M 180.898438 36.199219 L 180.898438 31.5 L 175.5 31.5 L 175.5 36.199219 L 174 36.199219 L 174 25.601562 L 175.5 25.601562 L 175.5 30.101562 L 180.898438 30.101562 L 180.898438 25.601562 L 182.398438 25.601562 L 182.398438 36.199219 Z M 192.398438 32.601562 C 192.398438 34.800781 190.898438 36.398438 188.699219 36.398438 C 186.5 36.398438 185 34.800781 185 32.601562 C 185 30.398438 186.5 28.800781 188.699219 28.800781 C 190.898438 28.699219 192.398438 30.398438 192.398438 32.601562 Z M 191 32.601562 C 191 30.898438 190 30 188.800781 30 C 187.601562 30 186.601562 30.898438 186.601562 32.601562 C 186.601562 34.300781 187.601562 35.199219 188.800781 35.199219 C 190 35.199219 191 34.199219 191 32.601562 Z M 196.800781 29 L 198.398438 29 L 198.398438 30.300781 L 196.800781 30.300781 L 196.800781 34 C 196.800781 34.699219 197.101562 35 197.800781 35 C 198 35 198.199219 35 198.398438 34.898438 L 198.398438 36.101562 C 198.300781 36.101562 197.898438 36.199219 197.398438 36.199219 C 196.199219 36.199219 195.398438 35.398438 195.398438 34.101562 L 195.398438 30.101562 L 194 30.101562 L 194 29 L 194.398438 29 C 195.199219 29 195.5 28.5 195.5 27.898438 L 195.5 26.699219 L 196.800781 26.699219 Z M 204.601562 25.398438 L 204.601562 26.699219 C 204.5 26.699219 204.300781 26.601562 204 26.601562 C 203.5 26.601562 202.898438 26.800781 202.898438 27.800781 L 202.898438 29 L 207.699219 29 L 207.699219 36.199219 L 206.300781 36.199219 L 206.300781 30.300781 L 202.898438 30.300781 L 202.898438 36.199219 L 201.398438 36.199219 L 201.398438 30.300781 L 200.101562 30.300781 L 200.101562 29 L 201.398438 29 L 201.398438 27.800781 C 201.398438 26.199219 202.5 25.300781 203.800781 25.300781 C 204.199219 25.300781 204.5 25.398438 204.601562 25.398438 Z M 206.898438 25.199219 C 207.5 25.199219 207.898438 25.601562 207.898438 26.199219 C 207.898438 26.800781 207.398438 27.199219 206.898438 27.199219 C 206.300781 27.199219 205.898438 26.699219 205.898438 26.199219 C 205.898438 25.601562 206.398438 25.199219 206.898438 25.199219 Z M 212.398438 32.5 L 209.800781 29 L 211.5 29 L 213.300781 31.5 L 215 29 L 216.699219 29 L 214.101562 32.5 C 214.5 33.101562 216.300781 35.601562 216.800781 36.199219 L 215.101562 36.199219 L 213.199219 33.5 L 211.398438 36.199219 L 209.699219 36.199219 Z M 212.398438 32.5 "/>
<path style="fill-rule:nonzero;fill:rgb(30.588236%,81.960785%,63.137257%);fill-opacity:1;stroke-width:4;stroke-linecap:round;stroke-linejoin:round;stroke:rgb(25.098041%,25.098041%,25.098041%);stroke-opacity:1;stroke-miterlimit:10;" d="M 559.101562 5.199219 L 655.300781 5.199219 L 655.300781 55.199219 L 559.101562 55.199219 Z M 559.101562 5.199219 "/>
<path style=" stroke:none;fill-rule:nonzero;fill:rgb(25.098041%,25.098041%,25.098041%);fill-opacity:1;" d="M 581.601562 35.699219 L 581.601562 25.101562 L 588.101562 25.101562 L 588.101562 26.5 L 583.101562 26.5 L 583.101562 29.898438 L 587.601562 29.898438 L 587.601562 31.300781 L 583.101562 31.300781 L 583.101562 35.800781 Z M 596.300781 33.601562 C 595.898438 34.898438 594.699219 35.898438 593.101562 35.898438 C 591.199219 35.898438 589.5 34.5 589.5 32 C 589.5 29.699219 591.101562 28.199219 593 28.199219 C 595.199219 28.199219 596.5 29.699219 596.5 32 L 596.5 32.5 L 591.101562 32.5 C 591.101562 33.800781 592.101562 34.699219 593.300781 34.699219 C 594.5 34.699219 595.101562 34.101562 595.300781 33.199219 Z M 594.800781 31.300781 C 594.800781 30.300781 594.101562 29.5 592.800781 29.5 C 591.601562 29.5 590.898438 30.398438 590.800781 31.300781 Z M 600.601562 31.601562 L 602.601562 31.300781 C 603 31.199219 603.199219 31 603.199219 30.800781 C 603.199219 30.101562 602.699219 29.5 601.601562 29.5 C 600.601562 29.5 600.101562 30.101562 600 31 L 598.699219 30.699219 C 598.898438 29.300781 600.101562 28.398438 601.699219 28.398438 C 603.898438 28.398438 604.699219 29.601562 604.699219 31 L 604.699219 34.601562 C 604.699219 35.199219 604.800781 35.601562 604.800781 35.800781 L 603.398438 35.800781 C 603.398438 35.601562 603.300781 35.300781 603.300781 34.800781 C 603 35.300781 602.300781 36 601 36 C 599.5 36 598.601562 35 598.601562 33.800781 C 598.398438 32.5 599.300781 31.699219 600.601562 31.601562 Z M 603.101562 32.601562 L 603.101562 32.300781 L 600.898438 32.601562 C 600.300781 32.699219 599.898438 33 599.898438 33.699219 C 599.898438 34.199219 600.398438 34.699219 601.101562 34.699219 C 602.199219 34.699219 603.101562 34.199219 603.101562 32.601562 Z M 609.300781 28.5 L 610.898438 28.5 L 610.898438 29.800781 L 609.300781 29.800781 L 609.300781 33.601562 C 609.300781 34.300781 609.601562 34.601562 610.300781 34.601562 C 610.5 34.601562 610.699219 34.601562 610.898438 34.5 L 610.898438 35.699219 C 610.800781 35.699219 610.398438 35.800781 609.898438 35.800781 C 608.699219 35.800781 607.898438 35 607.898438 33.699219 L 607.898438 29.699219 L 606.5 29.699219 L 606.5 28.398438 L 606.898438 28.398438 C 607.699219 28.398438 608 27.898438 608 27.300781 L 608 26.101562 L 609.300781 26.101562 Z M 616.101562 35.898438 C 614.398438 35.898438 613.398438 34.601562 613.398438 33 L 613.398438 28.5 L 614.800781 28.5 L 614.800781 32.800781 C 614.800781 33.800781 615.300781 34.699219 616.398438 34.699219 C 617.5 34.699219 618.101562 33.898438 618.101562 32.898438 L 618.101562 28.601562 L 619.5 28.601562 L 619.5 34.5 C 619.5 35.101562 619.5 35.601562 619.601562 35.800781 L 618.300781 35.800781 C 618.300781 35.601562 618.199219 35.199219 618.199219 34.898438 C 617.898438 35.601562 617 35.898438 616.101562 35.898438 Z M 626.800781 29.898438 L 626.199219 29.898438 C 625 29.898438 624.199219 30.5 624.199219 32.101562 L 624.199219 35.699219 L 622.800781 35.699219 L 622.800781 28.5 L 624.199219 28.5 L 624.199219 29.800781 C 624.699219 28.699219 625.601562 28.398438 626.398438 28.398438 L 626.898438 28.398438 L 626.898438 29.898438 Z M 635.199219 33.601562 C 634.800781 34.898438 633.601562 35.898438 632 35.898438 C 630.101562 35.898438 628.398438 34.5 628.398438 32 C 628.398438 29.699219 630 28.199219 631.898438 28.199219 C 634.101562 28.199219 635.398438 29.699219 635.398438 32 L 635.398438 32.5 L 630 32.5 C 630 33.800781 631 34.699219 632.199219 34.699219 C 633.398438 34.699219 634 34.101562 634.199219 33.199219 Z M 633.800781 31.300781 C 633.800781 30.300781 633.101562 29.5 631.800781 29.5 C 630.601562 29.5 629.898438 30.398438 629.800781 31.300781 Z M 633.800781 31.300781 "/>
<path style="fill-rule:nonzero;fill:rgb(30.588236%,81.960785%,63.137257%);fill-opacity:1;stroke-width:4;stroke-linecap:round;stroke-linejoin:round;stroke:rgb(25.098041%,25.098041%,25.098041%);stroke-opacity:1;stroke-miterlimit:10;" d="M 696.800781 5.199219 L 793 5.199219 L 793 55.199219 L 696.800781 55.199219 Z M 696.800781 5.199219 "/>
<path style=" stroke:none;fill-rule:nonzero;fill:rgb(25.098041%,25.098041%,25.098041%);fill-opacity:1;" d="M 719.398438 35.699219 L 719.398438 25.101562 L 725.898438 25.101562 L 725.898438 26.5 L 720.898438 26.5 L 720.898438 29.898438 L 725.398438 29.898438 L 725.398438 31.300781 L 720.898438 31.300781 L 720.898438 35.800781 Z M 734 33.601562 C 733.601562 34.898438 732.398438 35.898438 730.800781 35.898438 C 728.898438 35.898438 727.199219 34.5 727.199219 32 C 727.199219 29.699219 728.800781 28.199219 730.601562 28.199219 C 732.800781 28.199219 734.101562 29.699219 734.101562 32 L 734.101562 32.5 L 728.699219 32.5 C 728.699219 33.800781 729.699219 34.699219 730.898438 34.699219 C 732.101562 34.699219 732.699219 34.101562 732.898438 33.199219 Z M 732.601562 31.300781 C 732.601562 30.300781 731.898438 29.5 730.601562 29.5 C 729.398438 29.5 728.699219 30.398438 728.601562 31.300781 Z M 738.398438 31.601562 L 740.300781 31.300781 C 740.699219 31.199219 740.898438 31 740.898438 30.800781 C 740.898438 30.101562 740.398438 29.5 739.300781 29.5 C 738.300781 29.5 737.800781 30.101562 737.699219 31 L 736.300781 30.699219 C 736.5 29.300781 737.699219 28.398438 739.300781 28.398438 C 741.5 28.398438 742.300781 29.601562 742.300781 31 L 742.300781 34.601562 C 742.300781 35.199219 742.398438 35.601562 742.398438 35.800781 L 741 35.800781 C 741 35.601562 740.898438 35.300781 740.898438 34.800781 C 740.601562 35.300781 739.898438 36 738.601562 36 C 737.101562 36 736.199219 35 736.199219 33.800781 C 736.199219 32.5 737.101562 31.699219 738.398438 31.601562 Z M 740.898438 32.601562 L 740.898438 32.300781 L 738.699219 32.601562 C 738.101562 32.699219 737.699219 33 737.699219 33.699219 C 737.699219 34.199219 738.101562 34.699219 738.898438 34.699219 C 739.898438 34.699219 740.898438 34.199219 740.898438 32.601562 Z M 747.101562 28.5 L 748.699219 28.5 L 748.699219 29.800781 L 747.101562 29.800781 L 747.101562 33.601562 C 747.101562 34.300781 747.398438 34.601562 748.101562 34.601562 C 748.300781 34.601562 748.5 34.601562 748.699219 34.5 L 748.699219 35.699219 C 748.601562 35.699219 748.199219 35.800781 747.699219 35.800781 C 746.5 35.800781 745.699219 35 745.699219 33.699219 L 745.699219 29.699219 L 744.300781 29.699219 L 744.300781 28.398438 L 744.699219 28.398438 C 745.5 28.398438 745.800781 27.898438 745.800781 27.300781 L 745.800781 26.101562 L 747.101562 26.101562 Z M 753.898438 35.898438 C 752.199219 35.898438 751.199219 34.601562 751.199219 33 L 751.199219 28.5 L 752.601562 28.5 L 752.601562 32.800781 C 752.601562 33.800781 753.101562 34.699219 754.199219 34.699219 C 755.300781 34.699219 755.898438 33.898438 755.898438 32.898438 L 755.898438 28.601562 L 757.300781 28.601562 L 757.300781 34.5 C 757.300781 35.101562 757.300781 35.601562 757.398438 35.800781 L 756.101562 35.800781 C 756.101562 35.601562 756 35.199219 756 34.898438 C 755.699219 35.601562 754.800781 35.898438 753.898438 35.898438 Z M 764.5 29.898438 L 763.898438 29.898438 C 762.699219 29.898438 761.898438 30.5 761.898438 32.101562 L 761.898438 35.699219 L 760.5 35.699219 L 760.5 28.5 L 761.898438 28.5 L 761.898438 29.800781 C 762.398438 28.699219 763.300781 28.398438 764.101562 28.398438 L 764.601562 28.398438 L 764.601562 29.898438 Z M 773 33.601562 C 772.601562 34.898438 771.398438 35.898438 769.800781 35.898438 C 767.898438 35.898438 766.199219 34.5 766.199219 32 C 766.199219 29.699219 767.800781 28.199219 769.699219 28.199219 C 771.898438 28.199219 773.199219 29.699219 773.199219 32 L 773.199219 32.5 L 767.800781 32.5 C 767.800781 33.800781 768.800781 34.699219 770 34.699219 C 771.199219 34.699219 771.800781 34.101562 772 33.199219 Z M 771.601562 31.300781 C 771.601562 30.300781 770.898438 29.5 769.601562 29.5 C 768.398438 29.5 767.699219 30.398438 767.601562 31.300781 Z M 771.601562 31.300781 "/>
<path style="fill:none;stroke-width:4;stroke-linecap:butt;stroke-linejoin:miter;stroke:rgb(25.098041%,25.098041%,25.098041%);stroke-opacity:1;stroke-miterlimit:10;" d="M 84.898438 275 L 84.898438 398.398438 C 84.898438 415.398438 98.699219 429.199219 115.699219 429.199219 L 211.398438 429.199219 "/>
<path style="fill-rule:nonzero;fill:rgb(69.411767%,54.509807%,90.980393%);fill-opacity:1;stroke-width:4;stroke-linecap:butt;stroke-linejoin:miter;stroke:rgb(25.098041%,25.098041%,25.098041%);stroke-opacity:1;stroke-miterlimit:10;" d="M 211.300781 429.101562 C 211.300781 437.769531 204.269531 444.800781 195.601562 444.800781 C 186.929688 444.800781 179.898438 437.769531 179.898438 429.101562 C 179.898438 420.429688 186.929688 413.398438 195.601562 413.398438 C 204.269531 413.398438 211.300781 420.429688 211.300781 429.101562 Z M 211.300781 429.101562 "/>
<path style="fill-rule:nonzero;fill:rgb(69.411767%,54.509807%,90.980393%);fill-opacity:1;stroke-width:4;stroke-linecap:butt;stroke-linejoin:miter;stroke:rgb(25.098041%,25.098041%,25.098041%);stroke-opacity:1;stroke-miterlimit:10;" d="M 164.5 429.101562 C 164.5 437.824219 157.425781 444.898438 148.699219 444.898438 C 139.972656 444.898438 132.898438 437.824219 132.898438 429.101562 C 132.898438 420.375 139.972656 413.300781 148.699219 413.300781 C 157.425781 413.300781 164.5 420.375 164.5 429.101562 Z M 164.5 429.101562 "/>
<path style="fill-rule:nonzero;fill:rgb(98.823529%,51.372552%,38.82353%);fill-opacity:1;stroke-width:4;stroke-linecap:round;stroke-linejoin:round;stroke:rgb(25.098041%,25.098041%,25.098041%);stroke-opacity:1;stroke-miterlimit:10;" d="M 164.5 306.101562 C 164.5 314.824219 157.425781 321.898438 148.699219 321.898438 C 139.972656 321.898438 132.898438 314.824219 132.898438 306.101562 C 132.898438 297.375 139.972656 290.300781 148.699219 290.300781 C 157.425781 290.300781 164.5 297.375 164.5 306.101562 Z M 164.5 306.101562 "/>
<path style="fill:none;stroke-width:4;stroke-linecap:butt;stroke-linejoin:miter;stroke:rgb(25.098041%,25.098041%,25.098041%);stroke-opacity:1;stroke-miterlimit:10;" d="M 536.5 398.398438 C 536.5 415.398438 522.699219 429.199219 505.699219 429.199219 M 706.699219 398.398438 C 706.699219 415.398438 720.5 429.199219 737.5 429.199219 L 760.5 429.199219 M 568.101562 367.601562 L 567.199219 367.601562 C 550.199219 367.601562 536.398438 381.398438 536.398438 398.398438 M 706.699219 398.398438 C 706.699219 381.398438 692.898438 367.601562 675.898438 367.601562 L 568.101562 367.601562 "/>
<path style="fill-rule:nonzero;fill:rgb(29.803923%,82.745099%,83.92157%);fill-opacity:1;stroke-width:4;stroke-linecap:butt;stroke-linejoin:round;stroke:rgb(25.098041%,25.098041%,25.098041%);stroke-opacity:1;stroke-miterlimit:10;" d="M 660.800781 367.601562 C 660.800781 376.324219 653.726562 383.398438 645 383.398438 C 636.273438 383.398438 629.199219 376.324219 629.199219 367.601562 C 629.199219 358.875 636.273438 351.800781 645 351.800781 C 653.726562 351.800781 660.800781 358.875 660.800781 367.601562 Z M 660.800781 367.601562 "/>
<path style="fill-rule:nonzero;fill:rgb(29.803923%,82.745099%,83.92157%);fill-opacity:1;stroke-width:4;stroke-linecap:butt;stroke-linejoin:round;stroke:rgb(25.098041%,25.098041%,25.098041%);stroke-opacity:1;stroke-miterlimit:10;" d="M 614 367.601562 C 614 376.324219 606.925781 383.398438 598.199219 383.398438 C 589.472656 383.398438 582.398438 376.324219 582.398438 367.601562 C 582.398438 358.875 589.472656 351.800781 598.199219 351.800781 C 606.925781 351.800781 614 358.875 614 367.601562 Z M 614 367.601562 "/>
<path style="fill:none;stroke-width:4;stroke-linecap:butt;stroke-linejoin:miter;stroke:rgb(25.098041%,25.098041%,25.098041%);stroke-opacity:1;stroke-miterlimit:10;" d="M 148.699219 444.898438 L 148.699219 536.398438 M 164.5 305.699219 L 211.699219 305.699219 M 645 351.898438 L 645 260.398438 "/>
<path style="fill-rule:nonzero;fill:rgb(70.19608%,89.019608%,100%);fill-opacity:1;stroke-width:4;stroke-linecap:round;stroke-linejoin:round;stroke:rgb(25.098041%,25.098041%,25.098041%);stroke-opacity:1;stroke-miterlimit:10;" d="M 8 5.199219 L 104.199219 5.199219 L 104.199219 55.199219 L 8 55.199219 Z M 8 5.199219 "/>
<path style=" stroke:none;fill-rule:nonzero;fill:rgb(25.490198%,25.490198%,25.490198%);fill-opacity:1;" d="M 40.898438 36.300781 L 40.898438 26.300781 L 42.898438 26.300781 L 45.300781 33.398438 C 45.5 34.101562 45.699219 34.601562 45.800781 34.898438 C 45.898438 34.5 46.101562 34 46.300781 33.300781 L 48.699219 26.300781 L 50.5 26.300781 L 50.5 36.300781 L 49.199219 36.300781 L 49.199219 27.898438 L 46.300781 36.300781 L 45.101562 36.300781 L 42.199219 27.800781 L 42.199219 36.300781 Z M 40.898438 36.300781 "/>
<path style=" stroke:none;fill-rule:nonzero;fill:rgb(25.490198%,25.490198%,25.490198%);fill-opacity:1;" d="M 57.898438 35.398438 C 57.398438 35.800781 57 36.101562 56.601562 36.199219 C 56.199219 36.398438 55.699219 36.398438 55.199219 36.398438 C 54.398438 36.398438 53.800781 36.199219 53.398438 35.800781 C 53 35.398438 52.800781 34.898438 52.800781 34.300781 C 52.800781 33.898438 52.898438 33.601562 53 33.300781 C 53.199219 33 53.398438 32.800781 53.601562 32.601562 C 53.898438 32.398438 54.199219 32.300781 54.5 32.199219 C 54.699219 32.101562 55.101562 32.101562 55.601562 32 C 56.601562 31.898438 57.300781 31.699219 57.800781 31.601562 C 57.800781 31.398438 57.800781 31.300781 57.800781 31.300781 C 57.800781 30.800781 57.699219 30.398438 57.5 30.199219 C 57.199219 29.898438 56.699219 29.800781 56.101562 29.800781 C 55.5 29.800781 55.101562 29.898438 54.800781 30.101562 C 54.5 30.300781 54.300781 30.699219 54.199219 31.199219 L 53 31 C 53.101562 30.5 53.300781 30.101562 53.5 29.800781 C 53.800781 29.5 54.101562 29.199219 54.601562 29.101562 C 55.101562 28.898438 55.601562 28.800781 56.199219 28.800781 C 56.800781 28.800781 57.300781 28.898438 57.699219 29 C 58.101562 29.101562 58.398438 29.300781 58.601562 29.601562 C 58.800781 29.800781 58.898438 30.101562 59 30.398438 C 59 30.601562 59.101562 31 59.101562 31.5 L 59.101562 33.101562 C 59.101562 34.199219 59.101562 35 59.199219 35.300781 C 59.300781 35.601562 59.398438 35.898438 59.5 36.199219 L 58.199219 36.199219 C 58 36.101562 57.898438 35.800781 57.898438 35.398438 Z M 57.800781 32.699219 C 57.398438 32.898438 56.699219 33 55.800781 33.199219 C 55.300781 33.300781 54.898438 33.398438 54.699219 33.398438 C 54.5 33.398438 54.300781 33.601562 54.199219 33.800781 C 54.101562 34 54 34.199219 54 34.398438 C 54 34.699219 54.101562 35 54.398438 35.199219 C 54.601562 35.398438 55 35.5 55.5 35.5 C 56 35.5 56.398438 35.398438 56.800781 35.199219 C 57.199219 35 57.398438 34.699219 57.601562 34.300781 C 57.699219 34 57.800781 33.601562 57.800781 33.101562 Z M 57.800781 32.699219 "/>
<path style=" stroke:none;fill-rule:nonzero;fill:rgb(25.490198%,25.490198%,25.490198%);fill-opacity:1;" d="M 61.601562 27.699219 L 61.601562 26.300781 L 62.800781 26.300781 L 62.800781 27.699219 Z M 61.601562 36.300781 L 61.601562 29 L 62.800781 29 L 62.800781 36.300781 Z M 61.601562 36.300781 "/>
<path style=" stroke:none;fill-rule:nonzero;fill:rgb(25.490198%,25.490198%,25.490198%);fill-opacity:1;" d="M 65.398438 36.300781 L 65.398438 29 L 66.5 29 L 66.5 30 C 67 29.199219 67.800781 28.800781 68.800781 28.800781 C 69.199219 28.800781 69.601562 28.898438 70 29 C 70.398438 29.199219 70.601562 29.398438 70.800781 29.601562 C 71 29.800781 71.101562 30.199219 71.199219 30.5 C 71.199219 30.699219 71.300781 31.101562 71.300781 31.699219 L 71.300781 36.199219 L 70.101562 36.199219 L 70.101562 31.800781 C 70.101562 31.300781 70.101562 30.898438 70 30.699219 C 69.898438 30.5 69.699219 30.300781 69.5 30.101562 C 69.300781 30 69 29.898438 68.601562 29.898438 C 68.101562 29.898438 67.601562 30.101562 67.199219 30.398438 C 66.800781 30.699219 66.601562 31.398438 66.601562 32.300781 L 66.601562 36.300781 Z M 65.398438 36.300781 "/>
</g>
</svg>
